<?xml version="1.0" encoding="UTF-8" standalone="no"?><svg xmlns="http://www.w3.org/2000/svg" xmlns:xlink="http://www.w3.org/1999/xlink" fill="#000000" height="302.3" preserveAspectRatio="xMidYMid meet" version="1" viewBox="95.1 519.7 1752.2 302.3" width="1752.2" zoomAndPan="magnify"><g id="change1_1"><path d="M420.93 819.38L100.83 819.38 207.44 697.88 100.83 576.37 400.3 576.37z" fill="#ff3131"/></g><g id="change2_1"><path d="m423.77 821.98h-328.7l108.9-124.11-108.9-124.11h307.62l21.079 248.22zm-317.19-5.212h311.51l-20.193-237.79h-291.32l104.33 118.9-104.33 118.9z" fill="#231f20"/></g><g id="change1_2"><path d="M378.82 767.5L420.93 819.38" fill="#ff3131"/></g><g id="change2_2"><path d="m420.94 821.98c-0.758 0-1.51-0.329-2.025-0.964l-42.119-51.879c-0.907-1.117-0.737-2.759 0.381-3.666 1.118-0.906 2.758-0.736 3.666 0.381l42.119 51.879c0.907 1.117 0.737 2.759-0.381 3.666-0.483 0.392-1.064 0.583-1.641 0.583z" fill="#231f20"/></g><g id="change1_3"><path d="M1521.5 818.58L1841.6 818.58 1734.9 697.08 1841.6 575.58 1542.1 575.58z" fill="#ff3131"/></g><g id="change2_3"><path d="m1847.3 821.19h-328.7l21.077-248.22h307.62l-108.9 124.11 108.9 124.11zm-323.02-5.212h311.51l-104.33-118.9 104.33-118.9h-291.32l-20.193 237.79z" fill="#231f20"/></g><g id="change1_4"><path d="M1565.9 766.76L1522.2 817.66" fill="#ff3131"/></g><g id="change2_4"><path d="m1522.2 820.26c-0.602 0-1.205-0.207-1.697-0.63-1.092-0.938-1.217-2.583-0.278-3.675l43.713-50.894c0.936-1.092 2.582-1.218 3.675-0.278 1.092 0.938 1.217 2.583 0.278 3.675l-43.713 50.894c-0.515 0.599-1.245 0.908-1.978 0.908z" fill="#231f20"/></g><g id="change1_5"><path d="M378.82 522.32H1565.62V765.32H378.82z" fill="#ff3131"/></g><g id="change2_5"><path d="m1568.3 767.92h-1192.1v-248.22h1192.1v248.22zm-1186.8-5.213h1181.6v-237.79h-1181.6v237.79z" fill="#231f20"/></g></svg>